<svg id="a5e7be4e-4f0f-4ee7-81a9-d0dcd63ab360" data-name="Layer 1" xmlns="http://www.w3.org/2000/svg" viewBox="0 0 1417.32 403.4"><defs><style>.e706a0fc-2ccc-4914-941b-4e59216e9897{fill:#e94639;}</style></defs><g id="bd141066-bb14-425f-af62-4319159f58d0" data-name="9ff5925f-b6c7-43a8-8d96-cb4385610da1"><g id="b00d737d-f55c-40ae-b52f-1b2aae88bab3" data-name="text8"><g id="bcd78f77-588a-4d8a-9b68-0ee35215cfe7" data-name="path28"><path class="e706a0fc-2ccc-4914-941b-4e59216e9897" d="M529.84,17.72a36.79,36.79,0,0,0,.68-10.95L524,7.8c.68,3.42,1,5.81.68,7.52-2.39,10.94-8.55,18.12-18.46,21.89-7.18,2.73-17.1,4.1-30.43,4.1-19.49,0-48.21-5.81-86.85-17.44l-28-8.55c-29.06-8.55-51.63-13-68-13C251.52,2.33,218,12.93,192,34.13c-45.47,0-86.16,15.38-122.4,45.81C34.4,109,12.52,144.57,3.63,186.62c-8.55,41-2,76.59,20.17,107,23.59,31.8,57.44,47.53,101.55,47.53,36.93,0,74.54-11.28,112.83-33.51a316.24,316.24,0,0,0,40,25.3,108.48,108.48,0,0,0,49.23,11.63c22.91,0,43.43-7.52,62.23-22.22s30.09-32.49,34.54-53.34c2.05-9.58,1.71-17.78-.69-24.28-3.42-8.55-9.91-12.65-19.14-12.65-11.29,0-22.23,7.52-24.62,18.12-2.4,9.23,3.42,18.81,13.33,18.81A27.42,27.42,0,0,0,403.33,267l9.23-3.41c5.13,0,6.84,3.07,5.81,9.23-2.73,13-12.65,23.93-30.08,32.82a98,98,0,0,1-45.82,11.63c-38.3,0-68-6.84-89.58-20.86,17.09-13.34,32.48-31.46,45.81-54,7.87-13.34,17.44-33.85,29.07-60.87,14-3.41,24.61-5.12,32.48-5.12,13.33,0,20.86,4.1,22.22,12.65.35,5.13,1.71,7.52,4.11,7.52,4.1,0,6.49-2,7.52-6.5,1.37-5.81-2.4-10.94-11.28-15a48.33,48.33,0,0,0-21.2-5.13c-8.21,0-18.47,1.37-30.43,4.44,12-30.08,20.85-49.23,26.67-59.83,12.65-22.91,26.66-40.69,42.73-52.66l8.55,1Q437.36,70,453.25,70c16.75,0,32.82-4.79,47.87-14C517.19,45.75,526.76,33.1,529.84,17.72Zm-135.74,40C375,71.06,359.56,84.05,348.28,97.38c-8.55,10.26-19.83,26.33-33.51,48.56L301.1,169.19l-5.47,11.28h-4.11c-2.39,0-8.2-1.37-10.94-1.37,6.16-15.38,9.92-26.33,11.28-33.16,6.84-31.46,2.06-57.79-14.7-78.65-16.75-21.2-42.05-32.14-75.9-33.16C220.06,20.79,240.92,14,263.49,14c14.7,0,37.61,6.84,68.72,20.18l26.33,11.62C369.14,50.2,381.45,54,394.1,57.72ZM285.37,142.86c-2.05,9.57-6.5,20.86-13,33.51-6.16-3.77-9.92-7.87-11.29-13a20.66,20.66,0,0,0,8.21-12.65c1-5.81,0-8.89-3.76-8.89-5.47,0-8.89,3.76-10.6,11.29l-2.05,10.25c-13,11.29-28.73,17.1-46.85,17.1-21.54,0-36.92-8.21-46.5-24.62-8.55-14.7-10.94-32.48-6.49-53,4.78-22.22,17.78-43.42,39.32-63.59h9.91c29.75,0,53,10.6,69.41,31.45C286.74,90.89,291.18,115.16,285.37,142.86Zm7.18,43.76c-2.39,3.08-3.76,5.82-4.1,7.87-29.41,47.87-50.61,78.3-63.26,90.95q-5.64-4.11-10.26-4.1l-15.38-8.55c-9.24-5.13-15.05-8.21-18.81-10.6l-3.08-1-7.52-1c26-5.82,46.5-14.71,63.26-26q26.15-18.47,43.08-49.24a40,40,0,0,0,10.6,1.71Zm-23.25-5.13a158.5,158.5,0,0,1-50.61,51.63C196.47,247.83,173.22,255,149.63,255c-2.74,0-9.58-1.71-13.34-1.71a42.05,42.05,0,0,0-9.23-1c-5.13,0-8.21,2-8.89,5.81-1,3.77.68,5.48,5.13,5.48s7.52-.35,9.91-1.37h8.89a92.57,92.57,0,0,1,41,9.23c7.87,3.76,19.49,10.94,34.2,21.54-29.75,27-60.87,40.69-93.69,40.69-40.69,0-71.46-15-92.66-44.79C10.47,260.48,4.31,227.65,12.18,190c7.86-35.9,26.66-68,57.1-96.42,31.45-29.75,67-47.18,106.33-52.31l8.21-2.05C163,58.75,150.31,79.94,145.18,102.85c-4.44,22.23-2.05,41.38,7.87,57.45,10.94,17.43,28,26.32,51.63,26.32q27.18,0,50.26-17.43Q262.11,179.44,269.3,181.49Z"/></g><g id="e5cf2acd-d195-4a62-97a9-7d7fc64638dd" data-name="path30"><path class="e706a0fc-2ccc-4914-941b-4e59216e9897" d="M656.57,216a11.09,11.09,0,0,0,0-4.79c-22.91,23.25-39,38.3-47.53,46.5-25.64,22.91-44.1,34.54-54.7,34.54q-14.37,0-20.52-21.54L526,243.38,543.74,227q25.63-23.59,33.85-23.59c6.83,0,9.57,3.07,8.2,8.89-2.39,10.6-11.28,22.22-27.35,35.56l.68,1.36a93.29,93.29,0,0,0,27.7-18.46c9.23-8.89,15-17.78,16.75-26.33,1.71-9.23-2.39-17.43-12-17.43-7.86,0-18.8,5.81-32.14,17.43l-36.24,32.14-13-45.47c-.69-2.74-1.71-4.1-3.08-4.1-1,0-1.37.68-1.71.68l-14.7,2c-2.05.34-3.42,1.37-3.76,3.08v1.71l17.44,62.57-32.83,30.43c-8.89,7.86-15.73,12-20.17,12-5.81,0-7.87-2.74-6.84-8.55,0,1.71.34,0,2.05-6.5l-.34-.68c-11.28,6.5-18.12,14.36-20.17,23.59-1.71,7.87,1.71,12,9.57,12,7.52,0,19.15-7.18,34.53-21.2l37.27-34.19c3.08,12.65,6.84,22.22,10.6,28q9.75,14.37,25.65,14.37c16.07,0,44.45-19.49,85.13-58.81C646.31,230.73,655.54,220.47,656.57,216Z"/></g><g id="f87d337e-fdb5-430a-9ff6-16ca192b518c" data-name="path32"><path class="e706a0fc-2ccc-4914-941b-4e59216e9897" d="M818.12,212.27v-4.11c-25,25-43.09,42.06-54,51.63-13.33,12-22.56,17.78-28.38,17.78-5.13,0-7.86-2.39-8.2-6.83q20-24.11,23.59-42.06T746,197.91c-6.15-8.55-15.39-13-28-13-20.51,0-41.37,8.55-62.57,26-21.2,16.75-33.85,34.88-37.61,53.68-5.81,26.33,8.89,43.08,38,43.08,17.78,0,36.59-7.52,56.76-22.91,3.08,4.11,7.52,6.16,13,6.16,6.49,0,15.72-4.45,28.37-13.34a558.43,558.43,0,0,0,42.4-38.29C809.91,225.94,817.09,217.05,818.12,212.27ZM734.35,216C719,230.73,710.07,245.09,707,259.11a32.12,32.12,0,0,0-.34,12.65c-18.12,19.15-33.51,28.72-45.82,28.72-15.73,0-21.54-9.91-17.09-29.74,2.39-12,8.2-24.28,16.75-37.27a134.71,134.71,0,0,1,22.91-26.33c12-9.92,22.22-15,31.46-15C728.19,192.09,734.69,200,734.35,216Z"/></g><g id="f7a64037-20d5-41ec-b14d-59d11fa08d9a" data-name="path34"><path class="e706a0fc-2ccc-4914-941b-4e59216e9897" d="M938.11,212.27a8.28,8.28,0,0,0,0-4.11c-34.19,33.85-56.08,55-66,63.94C855.36,286.81,843.4,294,836.9,294c-6.84,0-9.57-3.08-8.21-9.58,1.71-7.86,22.23-39,61.55-92.66l-1-1c-26,7.86-41.71,11.62-47.52,11.62-7.18,0-10.26-2.73-8.89-8.55.34-1.71,2.39-5.12,6.49-10.94l-.34-1c-13.68,1-26,15-28.72,27.35-1.71,7.86,2.39,12,12.31,12q11.79,0,38-13.34c-33.85,35.56-52.31,61.55-55.73,77.62-3.08,14,3.76,21.2,19.83,21.2,10.26,0,22.23-5.13,36.24-15.39,8.21-6.5,25.31-21.88,50.27-46.5l18.8-18.46C934.69,220.82,937.42,216,938.11,212.27Z"/></g><g id="ac5d4dc0-7627-43e6-88cf-9c4a99d2e7b2" data-name="path36"><path class="e706a0fc-2ccc-4914-941b-4e59216e9897" d="M1097.26,212.27v-4.11c-25,25-43.08,42.06-54,51.63-13.34,12-22.57,17.78-28.38,17.78-5.13,0-7.87-2.39-8.21-6.83q20-24.11,23.59-42.06t-5.12-30.77c-6.16-8.55-15.39-13-28-13-20.52,0-41.37,8.55-62.57,26-21.2,16.75-33.85,34.88-37.61,53.68-5.82,26.33,8.89,43.08,38,43.08,17.78,0,36.58-7.52,56.76-22.91,3.07,4.11,7.52,6.16,13,6.16,6.5,0,15.73-4.45,28.38-13.34a560.39,560.39,0,0,0,42.4-38.29C1089.05,225.94,1096.23,217.05,1097.26,212.27ZM1013.49,216c-15.39,14.7-24.28,29.06-27.35,43.08a32,32,0,0,0-.35,12.65c-18.12,19.15-33.5,28.72-45.81,28.72-15.73,0-21.54-9.91-17.1-29.74,2.39-12,8.21-24.28,16.76-37.27a135,135,0,0,1,22.9-26.33c12-9.92,22.23-15,31.46-15C1007.34,192.09,1013.83,200,1013.49,216Z"/></g><g id="a527bc2e-f955-42ba-b468-004b50764474" data-name="path38"><path class="e706a0fc-2ccc-4914-941b-4e59216e9897" d="M1263.41,216.37a31.86,31.86,0,0,0-.34-4.44q-68.73,67.69-114.89,97.44c14.71-30.09,29.75-58.12,47.19-86.84,10.6-18.13,17.78-29.07,19.49-32.83.34-1.37-.34-2-2-2l-16.76,2q-4.1.51-12.31,11.28c-8.89,12-17.43,22.91-26,32.14-35.22,38.64-59.5,58.13-73.51,58.13-5.13,0-7.18-2.05-6.16-6.5a54.48,54.48,0,0,1,5.47-14l43.43-78c1-2.4,1.36-3.08,1.36-3.08.35-1-.34-1.71-1.36-1.71l-16.42,1.71c-3.76.34-6.83,1.71-8.89,4.79l-38.29,69.07c-5.81,10.59-8.89,17.43-9.23,20.17-2.74,13.33,2.39,19.83,15,19.83,22.91,0,54.37-22.57,94.37-67.36-22.91,44.11-35.9,70.1-39,78.64-42.4,24.62-66.33,49.24-71.46,73.86a33.94,33.94,0,0,0-.34,14.36l2,.34c36.24-11.28,65.65-38.64,87.87-82.4,21.54-12.65,52.32-36.59,91.64-71.81C1252.47,232.44,1262.39,221.5,1263.41,216.37ZM1122.2,325.1c-12.31,33.51-29.06,54.71-49.92,63.6a23.56,23.56,0,0,1,0-12C1076,358.61,1092.79,341.17,1122.2,325.1Z"/></g><g id="af784651-f013-4efd-8218-fec389b57efa" data-name="path40"><path class="e706a0fc-2ccc-4914-941b-4e59216e9897" d="M1417.32,216.37q-.51,1,0-5.13-81.54,83.08-97.44,83.09c-4.79,0-6.84-2.4-5.82-6.84a40.64,40.64,0,0,1,5.13-11.63l28.38-53c8.21-15.73,12.65-25,13.34-27.36v-1l-1-1.71a72,72,0,0,0-31.46-6.84c-20.51,0-40.68,6.84-60.17,20.51-29.07,20.52-45.82,41.72-50.61,63.6-2.05,9.92-1.37,18.12,1.71,24.62,4.45,7.18,11.63,10.94,21.54,10.94,16.07,0,39.67-18.12,70.44-54.36-11.29,19.14-17.78,31.79-19.15,38.29-2.39,11.28,2.74,16.76,15,16.76,10.6,0,23.26-5.82,38-17.78,8.55-6.84,26.67-23.6,54-49.92C1410.48,227.65,1416.3,220.13,1417.32,216.37Zm-76.59-17.78c-13.67,20.52-27.35,38.3-40.69,55-23.25,27.7-40.68,41.37-52,41.37-7.86,0-10.6-5.13-8.54-15.38,3.41-15.39,17.09-35.22,40.68-59.5,17.44-17.44,32.49-26.33,45.14-26.33C1331.84,193.8,1337,195.51,1340.73,198.59Z"/></g></g></g><g id="bcf1d743-96db-4ea7-a2e5-a23bb0721307" data-name="17da1116-9edf-440b-bb4c-6899bd5d6c1a"><g id="fdb0a241-80f3-4374-bcc6-80d7cd156e1b" data-name="g19"><g id="b468e01f-f99b-4ee4-a97c-a7c079760b29" data-name="g13"><path id="fa63febd-d837-42a8-aff5-a681beac05f7" data-name="path11" class="e706a0fc-2ccc-4914-941b-4e59216e9897" d="M1231.9,28.76v70.4h-21.68V8.23h124.22V17.8h8.23V0H1202V107.38h29.91v33.44h76L1360,176.29l.14-35.47h18V28.76ZM1370,132.6h-18l-.11,28.19-41.44-28.19h-70.29V37h94.31V99.16H1251v8.22h91.68V37H1370Z"/></g><g id="a9cda63f-ff0c-4e51-bde3-cb3da9b9d9fd" data-name="g17"><path id="a9eb913e-d3d3-4cc8-96c2-48758cf01e7a" data-name="path15" class="e706a0fc-2ccc-4914-941b-4e59216e9897" d="M1231.9,28.76v70.4h-21.68V8.23h124.22V17.8h8.23V0H1202V107.38h29.91v33.44h76L1360,176.29l.14-35.47h18V28.76ZM1370,132.6h-18l-.11,28.19-41.44-28.19h-70.29V37h94.31V99.16H1251v8.22h91.68V37H1370Z"/></g></g></g></svg>